<?xml version="1.0" encoding="UTF-8" standalone="no"?>
<!-- Generator: Adobe Illustrator 16.0.0, SVG Export Plug-In . SVG Version: 6.00 Build 0)  -->

<svg
   xmlns:dc="http://purl.org/dc/elements/1.1/"
   xmlns:cc="http://creativecommons.org/ns#"
   xmlns:rdf="http://www.w3.org/1999/02/22-rdf-syntax-ns#"
   xmlns:svg="http://www.w3.org/2000/svg"
   xmlns="http://www.w3.org/2000/svg"
   xmlns:sodipodi="http://sodipodi.sourceforge.net/DTD/sodipodi-0.dtd"
   xmlns:inkscape="http://www.inkscape.org/namespaces/inkscape"
   version="1.1"
   id="Capa_1"
   x="0px"
   y="0px"
   width="485.212px"
   height="485.212px"
   viewBox="0 0 485.212 485.212"
   style="enable-background:new 0 0 485.212 485.212;"
   xml:space="preserve"
   sodipodi:docname="Simpleicons_Places_map-marker-with-a-person-shape.svg"
   inkscape:version="0.92.3 (2405546, 2018-03-11)"><metadata
   id="metadata11"><rdf:RDF><cc:Work
       rdf:about=""><dc:format>image/svg+xml</dc:format><dc:type
         rdf:resource="http://purl.org/dc/dcmitype/StillImage" /></cc:Work></rdf:RDF></metadata><defs
   id="defs9" /><sodipodi:namedview
   pagecolor="#ffffff"
   bordercolor="#666666"
   borderopacity="1"
   objecttolerance="10"
   gridtolerance="10"
   guidetolerance="10"
   inkscape:pageopacity="0"
   inkscape:pageshadow="2"
   inkscape:window-width="1920"
   inkscape:window-height="1159"
   id="namedview7"
   showgrid="false"
   inkscape:zoom="0.48638533"
   inkscape:cx="242.606"
   inkscape:cy="-168.59061"
   inkscape:window-x="184"
   inkscape:window-y="41"
   inkscape:window-maximized="1"
   inkscape:current-layer="Capa_1" />
<g
   id="g4"
   style="fill:#ffffff">
	<path
   d="M288.095,45.49c0,25.114-20.377,45.488-45.49,45.488c-25.114,0-45.49-20.374-45.49-45.488   c0-25.113,20.376-45.49,45.49-45.49C267.718,0,288.095,20.376,288.095,45.49z M272.931,121.304h-60.65   c-16.765,0-30.327,13.562-30.327,30.324V272.93h30.327v121.307h60.65V272.93h30.322V151.628   C303.253,134.867,289.691,121.304,272.931,121.304z M303.253,306.482v30.626c70.632,8.354,121.307,30.737,121.307,57.129   c0,33.491-81.473,60.649-181.955,60.649S60.649,427.728,60.649,394.237c0-26.392,50.701-48.775,121.304-57.129v-30.626   c-82.271,9.008-151.628,37.085-151.628,87.755c0,62.838,106.615,90.976,212.28,90.976c105.662,0,212.282-28.138,212.282-90.976   C454.887,343.567,385.53,315.49,303.253,306.482z"
   id="path2"
   style="fill:#ffffff" />

</g>
</svg>